name ./resultDataOpenSim/trcMotMarkerGrf/sub06/grf-03-02.mot
datacolumns 19
datarows 12
range 1.00400000 1.04800000
endheader

                time	     ground_force_vx	     ground_force_vy	     ground_force_vz	     ground_force_px	     ground_force_py	     ground_force_pz	   l_ground_force_vx	   l_ground_force_vy	   l_ground_force_vz	   l_ground_force_px	   l_ground_force_py	   l_ground_force_pz	     ground_torque_x	     ground_torque_y	     ground_torque_z	   l_ground_torque_x	   l_ground_torque_y	   l_ground_torque_z	
          1.00400000	          0.00000000	          0.00000000	          0.00000000	          0.00000000	          0.00000000	          0.00000000	        108.98095905	        676.57928903	         43.67773717	          0.07851580	         -0.05000000	         -0.04431370	          0.00000000	          0.00000000	          0.00000000	          0.00000000	         -0.66134132	          0.00000000	
          1.00800000	          0.00000000	          0.00000000	          0.00000000	          0.00000000	          0.00000000	          0.00000000	        116.67715150	        694.20730645	         44.63679795	          0.07908228	         -0.05000000	         -0.04410857	          0.00000000	          0.00000000	          0.00000000	          0.00000000	         -0.70281630	          0.00000000	
          1.01200000	          0.00000000	          0.00000000	          0.00000000	          0.00000000	          0.00000000	          0.00000000	        124.54607071	        710.18805787	         45.22593486	          0.07973881	         -0.05000000	         -0.04388149	          0.00000000	          0.00000000	          0.00000000	          0.00000000	         -0.75612393	          0.00000000	
          1.01600000	          0.00000000	          0.00000000	          0.00000000	          0.00000000	          0.00000000	          0.00000000	        132.53604384	        724.42642283	         45.50070083	          0.08043387	         -0.05000000	         -0.04366554	          0.00000000	          0.00000000	          0.00000000	          0.00000000	         -0.81535587	          0.00000000	
          1.02000000	          0.00000000	          0.00000000	          0.00000000	          0.00000000	          0.00000000	          0.00000000	        140.62009923	        736.88288130	         45.52406906	          0.08110156	         -0.05000000	         -0.04348044	          0.00000000	          0.00000000	          0.00000000	          0.00000000	         -0.87575430	          0.00000000	
          1.02400000	          0.00000000	          0.00000000	          0.00000000	          0.00000000	          0.00000000	          0.00000000	        148.75111786	        747.50482019	         45.36507420	          0.08169430	         -0.05000000	         -0.04331742	          0.00000000	          0.00000000	          0.00000000	          0.00000000	         -0.93431282	          0.00000000	
          1.02800000	          0.00000000	          0.00000000	          0.00000000	          0.00000000	          0.00000000	          0.00000000	        156.83008966	        756.17612025	         45.08512332	          0.08222230	         -0.05000000	         -0.04314967	          0.00000000	          0.00000000	          0.00000000	          0.00000000	         -0.98970329	          0.00000000	
          1.03200000	          0.00000000	          0.00000000	          0.00000000	          0.00000000	          0.00000000	          0.00000000	        164.72946766	        762.73807604	         44.72124126	          0.08273905	         -0.05000000	         -0.04294629	          0.00000000	          0.00000000	          0.00000000	          0.00000000	         -1.04159849	          0.00000000	
          1.03600000	          0.00000000	          0.00000000	          0.00000000	          0.00000000	          0.00000000	          0.00000000	        172.33989892	        767.04456784	         44.28314693	          0.08329579	         -0.05000000	         -0.04268569	          0.00000000	          0.00000000	          0.00000000	          0.00000000	         -1.08978836	          0.00000000	
          1.04000000	          0.00000000	          0.00000000	          0.00000000	          0.00000000	          0.00000000	          0.00000000	        179.58518834	        768.97910337	         43.76833069	          0.08392689	         -0.05000000	         -0.04236302	          0.00000000	          0.00000000	          0.00000000	          0.00000000	         -1.13360031	          0.00000000	
          1.04400000	          0.00000000	          0.00000000	          0.00000000	          0.00000000	          0.00000000	          0.00000000	        186.40508228	        768.42837634	         43.17713697	          0.08464797	         -0.05000000	         -0.04198583	          0.00000000	          0.00000000	          0.00000000	          0.00000000	         -1.17190928	          0.00000000	
          1.04800000	          0.00000000	          0.00000000	          0.00000000	          0.00000000	          0.00000000	          0.00000000	        192.74271443	        765.26239569	         42.50881057	          0.08545390	         -0.05000000	         -0.04156855	          0.00000000	          0.00000000	          0.00000000	          0.00000000	         -1.20362043	          0.00000000	
